# Blender v2.92.0 OBJ File: '6Stem.blend'
# www.blender.org
mtllib 6Stem.mtl
o 4Stem_Cube
v 0.435076 -0.998207 0.245209
v 0.435076 0.028347 0.245209
v -0.435076 -0.998207 -0.245209
v -0.435076 0.028347 -0.245209
v -0.441866 0.028347 0.224604
v 0.441866 -0.998207 -0.224604
v -0.441866 -0.998207 0.224604
v 0.441866 0.028347 -0.224604
v 0.000000 0.028347 -0.495674
v 0.000000 -0.998207 0.495674
v 0.000000 0.028347 0.495674
v 0.000000 -0.998207 -0.495674
v 0.000000 0.028347 0.000000
v 0.000000 -0.998207 0.000000
vt 0.750000 0.625000
vt 0.750000 0.750000
vt 0.875000 0.625000
vt 0.375000 0.125000
vt 0.375000 0.250000
vt 0.625000 0.250000
vt 0.625000 0.125000
vt 0.250000 0.625000
vt 0.250000 0.750000
vt 0.375000 0.750000
vt 0.375000 0.625000
vt 0.625000 0.750000
vt 0.625000 0.625000
vt 0.625000 0.875000
vt 0.375000 0.875000
vt 0.250000 0.500000
vt 0.750000 0.500000
vt 0.875000 0.500000
vt 0.125000 0.500000
vt 0.125000 0.625000
vt 0.375000 0.375000
vt 0.625000 0.375000
vn 0.0000 -1.0000 0.0000
vn -0.9999 0.0000 -0.0145
vn -0.0000 1.0000 0.0000
vn 0.9999 0.0000 0.0145
vn -0.5229 0.0000 0.8524
vn -0.4989 0.0000 -0.8667
vn 0.4989 0.0000 0.8667
vn 0.5229 0.0000 -0.8524
usemtl Material
s off
f 14/1/1 10/2/1 7/3/1
f 5/4/2 4/5/2 3/6/2 7/7/2
f 13/8/3 11/9/3 2/10/3 8/11/3
f 8/11/4 2/10/4 1/12/4 6/13/4
f 5/4/5 7/7/5 10/14/5 11/15/5
f 9/16/3 13/8/3 8/11/3
f 12/17/1 14/1/1 7/3/1 3/18/1
f 12/17/1 6/13/1 14/1/1
f 4/19/3 5/20/3 13/8/3 9/16/3
f 4/5/6 9/21/6 12/22/6 3/6/6
f 5/20/3 11/9/3 13/8/3
f 2/10/7 11/15/7 10/14/7 1/12/7
f 6/13/1 1/12/1 10/2/1 14/1/1
f 8/11/8 6/13/8 12/22/8 9/21/8
