# Blender v2.92.0 OBJ File: '8Stem.blend'
# www.blender.org
mtllib 8Stem.mtl
o 4Stem_Cube
v 0.350080 -0.998207 -0.368733
v 0.350080 0.028347 -0.368733
v 0.350080 -0.998207 0.368733
v 0.350080 0.028347 0.368733
v -0.350080 -0.998207 -0.368733
v -0.350080 0.028347 -0.368733
v -0.350080 -0.998207 0.368733
v -0.350080 0.028347 0.368733
v -0.495674 0.028347 0.000000
v 0.495674 -0.998207 0.000000
v -0.495674 -0.998207 0.000000
v 0.495674 0.028347 0.000000
v 0.000000 0.028347 -0.495674
v 0.000000 -0.998207 0.495674
v 0.000000 0.028347 0.495674
v 0.000000 -0.998207 -0.495674
v 0.000000 0.028347 0.000000
v 0.000000 -0.998207 0.000000
vt 0.750000 0.625000
vt 0.750000 0.750000
vt 0.875000 0.750000
vt 0.875000 0.625000
vt 0.375000 0.875000
vt 0.375000 1.000000
vt 0.625000 1.000000
vt 0.625000 0.875000
vt 0.375000 0.125000
vt 0.375000 0.250000
vt 0.625000 0.250000
vt 0.625000 0.125000
vt 0.250000 0.625000
vt 0.250000 0.750000
vt 0.375000 0.750000
vt 0.375000 0.625000
vt 0.625000 0.750000
vt 0.625000 0.625000
vt 0.375000 0.375000
vt 0.375000 0.500000
vt 0.625000 0.500000
vt 0.625000 0.375000
vt 0.250000 0.500000
vt 0.375000 0.000000
vt 0.625000 0.000000
vt 0.750000 0.500000
vt 0.875000 0.500000
vt 0.125000 0.500000
vt 0.125000 0.625000
vt 0.125000 0.750000
vn 0.0000 -1.0000 0.0000
vn -0.3409 0.0000 0.9401
vn -0.9301 0.0000 -0.3673
vn 0.0000 1.0000 0.0000
vn 0.9301 0.0000 0.3673
vn 0.3409 0.0000 -0.9401
vn 0.9301 0.0000 -0.3673
vn -0.9301 0.0000 0.3673
vn -0.3409 0.0000 -0.9401
vn 0.3409 0.0000 0.9401
usemtl Material
s off
f 18/1/1 14/2/1 7/3/1 11/4/1
f 15/5/2 8/6/2 7/7/2 14/8/2
f 9/9/3 6/10/3 5/11/3 11/12/3
f 17/13/4 15/14/4 4/15/4 12/16/4
f 12/16/5 4/15/5 3/17/5 10/18/5
f 13/19/6 2/20/6 1/21/6 16/22/6
f 2/20/7 12/16/7 10/18/7 1/21/7
f 13/23/4 17/13/4 12/16/4 2/20/4
f 8/24/8 9/9/8 11/12/8 7/25/8
f 16/26/1 18/1/1 11/4/1 5/27/1
f 1/21/1 10/18/1 18/1/1 16/26/1
f 6/28/4 9/29/4 17/13/4 13/23/4
f 6/10/9 13/19/9 16/22/9 5/11/9
f 9/29/4 8/30/4 15/14/4 17/13/4
f 4/15/10 15/5/10 14/8/10 3/17/10
f 10/18/1 3/17/1 14/2/1 18/1/1
